<mxfile>
    <diagram id="U3bl7h1Hr5fx5xBmqj8j" name="Page-1">
        <mxGraphModel dx="1026" dy="479" grid="1" gridSize="10" guides="1" tooltips="1" connect="1" arrows="1" fold="1" page="1" pageScale="1" pageWidth="1600" pageHeight="900" math="0" shadow="0">
            <root>
                <mxCell id="0"/>
                <mxCell id="1" parent="0"/>
                <mxCell id="3" value="Target&lt;br&gt;&lt;span style=&quot;font-weight: normal&quot;&gt;&lt;font color=&quot;#0000ff&quot;&gt;virtual &lt;/font&gt;FilterTargets&lt;/span&gt;" style="rounded=0;whiteSpace=wrap;html=1;fontSize=14;verticalAlign=top;fontStyle=1;align=left;" parent="1" vertex="1">
                    <mxGeometry x="80" y="40" width="160" height="60" as="geometry"/>
                </mxCell>
                <mxCell id="4" value="Carry&lt;br&gt;&lt;font color=&quot;#0000ff&quot; style=&quot;font-weight: 400&quot;&gt;override&amp;nbsp;&lt;/font&gt;&lt;span style=&quot;font-weight: 400&quot;&gt;FilterTargets&lt;/span&gt;" style="rounded=0;whiteSpace=wrap;html=1;fontSize=14;verticalAlign=top;fontStyle=1;align=left;" parent="1" vertex="1">
                    <mxGeometry x="160" y="120" width="160" height="60" as="geometry"/>
                </mxCell>
                <mxCell id="5" value="Interact&lt;br&gt;&lt;font color=&quot;#0000ff&quot; style=&quot;font-weight: 400&quot;&gt;override&amp;nbsp;&lt;/font&gt;&lt;span style=&quot;font-weight: 400&quot;&gt;FilterTargets&lt;/span&gt;" style="rounded=0;whiteSpace=wrap;html=1;fontSize=14;verticalAlign=top;fontStyle=1;align=left;" parent="1" vertex="1">
                    <mxGeometry x="160" y="200" width="160" height="60" as="geometry"/>
                </mxCell>
                <mxCell id="6" value="" style="endArrow=classic;html=1;fontSize=14;exitX=0;exitY=0.5;exitDx=0;exitDy=0;entryX=0.25;entryY=1;entryDx=0;entryDy=0;edgeStyle=orthogonalEdgeStyle;strokeWidth=3;endSize=8;startSize=8;" parent="1" source="5" target="3" edge="1">
                    <mxGeometry width="50" height="50" relative="1" as="geometry">
                        <mxPoint x="470" y="30" as="sourcePoint"/>
                        <mxPoint x="520" y="-20" as="targetPoint"/>
                    </mxGeometry>
                </mxCell>
                <mxCell id="7" value="" style="endArrow=classic;html=1;fontSize=14;startSize=8;endSize=8;strokeWidth=3;exitX=0;exitY=0.5;exitDx=0;exitDy=0;entryX=0.25;entryY=1;entryDx=0;entryDy=0;edgeStyle=orthogonalEdgeStyle;" parent="1" source="4" target="3" edge="1">
                    <mxGeometry width="50" height="50" relative="1" as="geometry">
                        <mxPoint x="470" y="30" as="sourcePoint"/>
                        <mxPoint x="520" y="-20" as="targetPoint"/>
                    </mxGeometry>
                </mxCell>
                <mxCell id="8" value="Container" style="rounded=0;whiteSpace=wrap;html=1;fontSize=14;align=center;verticalAlign=middle;fontStyle=1" parent="1" vertex="1">
                    <mxGeometry x="480" y="130" width="120" height="40" as="geometry"/>
                </mxCell>
                <mxCell id="9" value="Interactive" style="rounded=0;whiteSpace=wrap;html=1;fontSize=14;align=center;verticalAlign=middle;fontStyle=1" parent="1" vertex="1">
                    <mxGeometry x="480" y="210" width="120" height="40" as="geometry"/>
                </mxCell>
                <mxCell id="10" value="" style="endArrow=classic;html=1;fontSize=14;startSize=8;endSize=8;strokeWidth=2;exitX=1;exitY=0.5;exitDx=0;exitDy=0;entryX=0;entryY=0.5;entryDx=0;entryDy=0;dashed=1;" parent="1" source="4" target="8" edge="1">
                    <mxGeometry width="50" height="50" relative="1" as="geometry">
                        <mxPoint x="470" y="30" as="sourcePoint"/>
                        <mxPoint x="520" y="-20" as="targetPoint"/>
                    </mxGeometry>
                </mxCell>
                <mxCell id="11" value="" style="endArrow=classic;html=1;fontSize=14;startSize=8;endSize=8;strokeWidth=2;exitX=1;exitY=0.5;exitDx=0;exitDy=0;entryX=0;entryY=0.5;entryDx=0;entryDy=0;dashed=1;" parent="1" source="5" target="9" edge="1">
                    <mxGeometry width="50" height="50" relative="1" as="geometry">
                        <mxPoint x="330" y="160" as="sourcePoint"/>
                        <mxPoint x="490" y="160" as="targetPoint"/>
                    </mxGeometry>
                </mxCell>
                <mxCell id="12" value="Effect" style="rounded=0;whiteSpace=wrap;html=1;fontSize=14;align=center;verticalAlign=middle;fontStyle=1" parent="1" vertex="1">
                    <mxGeometry x="560" y="280" width="120" height="40" as="geometry"/>
                </mxCell>
                <mxCell id="13" value="Effect" style="rounded=0;whiteSpace=wrap;html=1;fontSize=14;align=center;verticalAlign=middle;fontStyle=1" parent="1" vertex="1">
                    <mxGeometry x="560" y="340" width="120" height="40" as="geometry"/>
                </mxCell>
                <mxCell id="14" value="..." style="rounded=0;whiteSpace=wrap;html=1;fontSize=14;align=center;verticalAlign=middle;fontStyle=1" parent="1" vertex="1">
                    <mxGeometry x="560" y="400" width="120" height="40" as="geometry"/>
                </mxCell>
                <mxCell id="15" value="" style="endArrow=classic;html=1;fontSize=14;exitX=0;exitY=0.5;exitDx=0;exitDy=0;entryX=0.25;entryY=1;entryDx=0;entryDy=0;edgeStyle=orthogonalEdgeStyle;strokeWidth=3;endSize=8;startSize=8;" parent="1" source="14" target="9" edge="1">
                    <mxGeometry width="50" height="50" relative="1" as="geometry">
                        <mxPoint x="170" y="240" as="sourcePoint"/>
                        <mxPoint x="130" y="110" as="targetPoint"/>
                    </mxGeometry>
                </mxCell>
                <mxCell id="16" value="" style="endArrow=classic;html=1;fontSize=14;exitX=0;exitY=0.5;exitDx=0;exitDy=0;entryX=0.25;entryY=1;entryDx=0;entryDy=0;edgeStyle=orthogonalEdgeStyle;strokeWidth=3;endSize=8;startSize=8;" parent="1" source="13" target="9" edge="1">
                    <mxGeometry width="50" height="50" relative="1" as="geometry">
                        <mxPoint x="570" y="430" as="sourcePoint"/>
                        <mxPoint x="520" y="260" as="targetPoint"/>
                    </mxGeometry>
                </mxCell>
                <mxCell id="17" value="" style="endArrow=classic;html=1;fontSize=14;exitX=0;exitY=0.5;exitDx=0;exitDy=0;entryX=0.25;entryY=1;entryDx=0;entryDy=0;edgeStyle=orthogonalEdgeStyle;strokeWidth=3;endSize=8;startSize=8;" parent="1" source="12" target="9" edge="1">
                    <mxGeometry width="50" height="50" relative="1" as="geometry">
                        <mxPoint x="570" y="370" as="sourcePoint"/>
                        <mxPoint x="520" y="260" as="targetPoint"/>
                    </mxGeometry>
                </mxCell>
                <mxCell id="18" value="Consumer" style="rounded=0;whiteSpace=wrap;html=1;fontSize=14;align=center;verticalAlign=middle;fontStyle=1" parent="1" vertex="1">
                    <mxGeometry x="1080" y="40" width="120" height="40" as="geometry"/>
                </mxCell>
                <mxCell id="20" value="Interactive" style="rounded=0;whiteSpace=wrap;html=1;fontSize=14;align=center;verticalAlign=middle;fontStyle=1" parent="1" vertex="1">
                    <mxGeometry x="1200" y="240" width="120" height="40" as="geometry"/>
                </mxCell>
                <mxCell id="21" value="Consumer" style="rounded=0;whiteSpace=wrap;html=1;fontSize=14;align=center;verticalAlign=middle;fontStyle=1" parent="1" vertex="1">
                    <mxGeometry x="1080" y="100" width="120" height="40" as="geometry"/>
                </mxCell>
                <mxCell id="22" value="..." style="rounded=0;whiteSpace=wrap;html=1;fontSize=14;align=center;verticalAlign=middle;fontStyle=1" parent="1" vertex="1">
                    <mxGeometry x="1080" y="160" width="120" height="40" as="geometry"/>
                </mxCell>
                <mxCell id="23" value="" style="endArrow=classic;html=1;fontSize=14;exitX=0.5;exitY=0;exitDx=0;exitDy=0;entryX=1;entryY=0.5;entryDx=0;entryDy=0;edgeStyle=orthogonalEdgeStyle;strokeWidth=1;endSize=8;startSize=8;curved=1;" parent="1" source="20" target="18" edge="1">
                    <mxGeometry width="50" height="50" relative="1" as="geometry">
                        <mxPoint x="890" y="390" as="sourcePoint"/>
                        <mxPoint x="840" y="340" as="targetPoint"/>
                    </mxGeometry>
                </mxCell>
                <mxCell id="24" value="" style="endArrow=classic;html=1;fontSize=14;exitX=0.5;exitY=0;exitDx=0;exitDy=0;entryX=1;entryY=0.5;entryDx=0;entryDy=0;edgeStyle=orthogonalEdgeStyle;strokeWidth=1;endSize=8;startSize=8;curved=1;" parent="1" source="20" target="21" edge="1">
                    <mxGeometry width="50" height="50" relative="1" as="geometry">
                        <mxPoint x="1270" y="250" as="sourcePoint"/>
                        <mxPoint x="1210" y="70" as="targetPoint"/>
                    </mxGeometry>
                </mxCell>
                <mxCell id="25" value="" style="endArrow=classic;html=1;fontSize=14;exitX=0.5;exitY=0;exitDx=0;exitDy=0;entryX=1;entryY=0.5;entryDx=0;entryDy=0;edgeStyle=orthogonalEdgeStyle;strokeWidth=1;endSize=8;startSize=8;curved=1;" parent="1" source="20" target="22" edge="1">
                    <mxGeometry width="50" height="50" relative="1" as="geometry">
                        <mxPoint x="1270" y="250" as="sourcePoint"/>
                        <mxPoint x="1210" y="130" as="targetPoint"/>
                    </mxGeometry>
                </mxCell>
                <mxCell id="26" value="Check supplies" style="text;html=1;strokeColor=none;fillColor=none;align=center;verticalAlign=middle;whiteSpace=wrap;rounded=0;fontSize=14;fontStyle=0" parent="1" vertex="1">
                    <mxGeometry x="1250" y="105" width="120" height="30" as="geometry"/>
                </mxCell>
                <mxCell id="27" value="Effect" style="rounded=0;whiteSpace=wrap;html=1;fontSize=14;align=center;verticalAlign=middle;fontStyle=1" parent="1" vertex="1">
                    <mxGeometry x="1440" y="240" width="120" height="40" as="geometry"/>
                </mxCell>
                <mxCell id="28" value="" style="endArrow=classic;html=1;fontSize=14;exitX=1;exitY=0.5;exitDx=0;exitDy=0;entryX=0;entryY=0.5;entryDx=0;entryDy=0;edgeStyle=orthogonalEdgeStyle;strokeWidth=1;endSize=8;startSize=8;curved=1;" parent="1" source="20" target="27" edge="1">
                    <mxGeometry width="50" height="50" relative="1" as="geometry">
                        <mxPoint x="1270" y="250" as="sourcePoint"/>
                        <mxPoint x="1210" y="70" as="targetPoint"/>
                    </mxGeometry>
                </mxCell>
                <mxCell id="29" value="Trigger" style="text;html=1;strokeColor=none;fillColor=none;align=center;verticalAlign=middle;whiteSpace=wrap;rounded=0;fontSize=14;fontStyle=0" parent="1" vertex="1">
                    <mxGeometry x="1320" y="230" width="120" height="30" as="geometry"/>
                </mxCell>
                <mxCell id="30" value="Producer" style="rounded=0;whiteSpace=wrap;html=1;fontSize=14;align=center;verticalAlign=middle;fontStyle=1" parent="1" vertex="1">
                    <mxGeometry x="1320" y="320" width="120" height="40" as="geometry"/>
                </mxCell>
                <mxCell id="31" value="" style="endArrow=classic;html=1;fontSize=14;exitX=0.5;exitY=1;exitDx=0;exitDy=0;entryX=0;entryY=0.5;entryDx=0;entryDy=0;edgeStyle=orthogonalEdgeStyle;strokeWidth=1;endSize=8;startSize=8;curved=1;" parent="1" source="20" target="30" edge="1">
                    <mxGeometry width="50" height="50" relative="1" as="geometry">
                        <mxPoint x="1270" y="250" as="sourcePoint"/>
                        <mxPoint x="1210" y="190" as="targetPoint"/>
                    </mxGeometry>
                </mxCell>
                <mxCell id="32" value="Producer" style="rounded=0;whiteSpace=wrap;html=1;fontSize=14;align=center;verticalAlign=middle;fontStyle=1" parent="1" vertex="1">
                    <mxGeometry x="1320" y="380" width="120" height="40" as="geometry"/>
                </mxCell>
                <mxCell id="33" value="..." style="rounded=0;whiteSpace=wrap;html=1;fontSize=14;align=center;verticalAlign=middle;fontStyle=1" parent="1" vertex="1">
                    <mxGeometry x="1320" y="440" width="120" height="40" as="geometry"/>
                </mxCell>
                <mxCell id="34" value="" style="endArrow=classic;html=1;fontSize=14;exitX=0.5;exitY=1;exitDx=0;exitDy=0;entryX=0;entryY=0.5;entryDx=0;entryDy=0;edgeStyle=orthogonalEdgeStyle;strokeWidth=1;endSize=8;startSize=8;curved=1;" parent="1" source="20" target="32" edge="1">
                    <mxGeometry width="50" height="50" relative="1" as="geometry">
                        <mxPoint x="1270" y="290" as="sourcePoint"/>
                        <mxPoint x="1330" y="350" as="targetPoint"/>
                    </mxGeometry>
                </mxCell>
                <mxCell id="35" value="" style="endArrow=classic;html=1;fontSize=14;exitX=0.5;exitY=1;exitDx=0;exitDy=0;entryX=0;entryY=0.5;entryDx=0;entryDy=0;edgeStyle=orthogonalEdgeStyle;strokeWidth=1;endSize=8;startSize=8;curved=1;" parent="1" source="20" target="33" edge="1">
                    <mxGeometry width="50" height="50" relative="1" as="geometry">
                        <mxPoint x="1270" y="290" as="sourcePoint"/>
                        <mxPoint x="1330" y="410" as="targetPoint"/>
                    </mxGeometry>
                </mxCell>
                <mxCell id="36" value="Activate" style="text;html=1;strokeColor=none;fillColor=none;align=center;verticalAlign=middle;whiteSpace=wrap;rounded=0;fontSize=14;fontStyle=0" parent="1" vertex="1">
                    <mxGeometry x="1170" y="380" width="120" height="30" as="geometry"/>
                </mxCell>
                <mxCell id="37" value="Producer" style="rounded=0;whiteSpace=wrap;html=1;fontSize=14;align=center;verticalAlign=middle;fontStyle=1" parent="1" vertex="1">
                    <mxGeometry x="840" y="40" width="120" height="40" as="geometry"/>
                </mxCell>
                <mxCell id="39" value="Producer" style="rounded=0;whiteSpace=wrap;html=1;fontSize=14;align=center;verticalAlign=middle;fontStyle=1" parent="1" vertex="1">
                    <mxGeometry x="840" y="100" width="120" height="40" as="geometry"/>
                </mxCell>
                <mxCell id="40" value="" style="endArrow=classic;html=1;fontSize=14;startSize=8;endSize=8;strokeWidth=2;exitX=0;exitY=0.5;exitDx=0;exitDy=0;entryX=1;entryY=0.5;entryDx=0;entryDy=0;dashed=1;" parent="1" source="18" target="37" edge="1">
                    <mxGeometry width="50" height="50" relative="1" as="geometry">
                        <mxPoint x="330" y="160" as="sourcePoint"/>
                        <mxPoint x="490" y="160" as="targetPoint"/>
                    </mxGeometry>
                </mxCell>
                <mxCell id="41" value="" style="endArrow=classic;html=1;fontSize=14;startSize=8;endSize=8;strokeWidth=2;exitX=0;exitY=0.5;exitDx=0;exitDy=0;entryX=1;entryY=0.5;entryDx=0;entryDy=0;dashed=1;" parent="1" source="21" target="39" edge="1">
                    <mxGeometry width="50" height="50" relative="1" as="geometry">
                        <mxPoint x="1089.9999999999998" y="70" as="sourcePoint"/>
                        <mxPoint x="969.9999999999998" y="70" as="targetPoint"/>
                    </mxGeometry>
                </mxCell>
                <mxCell id="42" value="Consumer&lt;br&gt;&lt;font color=&quot;#0000ff&quot; style=&quot;font-weight: 400&quot;&gt;override&amp;nbsp;&lt;/font&gt;&lt;span style=&quot;font-weight: 400&quot;&gt;FilterTargets&lt;/span&gt;" style="rounded=0;whiteSpace=wrap;html=1;fontSize=14;verticalAlign=top;fontStyle=1;align=left;" parent="1" vertex="1">
                    <mxGeometry x="160" y="450" width="160" height="60" as="geometry"/>
                </mxCell>
                <mxCell id="43" value="" style="endArrow=classic;html=1;fontSize=14;exitX=0;exitY=0.5;exitDx=0;exitDy=0;edgeStyle=orthogonalEdgeStyle;strokeWidth=3;endSize=8;startSize=8;entryX=0.25;entryY=1;entryDx=0;entryDy=0;" parent="1" source="42" target="3" edge="1">
                    <mxGeometry width="50" height="50" relative="1" as="geometry">
                        <mxPoint x="170" y="240" as="sourcePoint"/>
                        <mxPoint x="50" y="200" as="targetPoint"/>
                    </mxGeometry>
                </mxCell>
                <mxCell id="44" value="Producer" style="rounded=0;whiteSpace=wrap;html=1;fontSize=14;align=center;verticalAlign=middle;fontStyle=1" parent="1" vertex="1">
                    <mxGeometry x="480" y="460" width="120" height="40" as="geometry"/>
                </mxCell>
                <mxCell id="45" value="" style="endArrow=classic;html=1;fontSize=14;startSize=8;endSize=8;strokeWidth=2;exitX=1;exitY=0.5;exitDx=0;exitDy=0;entryX=0;entryY=0.5;entryDx=0;entryDy=0;dashed=1;" parent="1" source="42" target="44" edge="1">
                    <mxGeometry width="50" height="50" relative="1" as="geometry">
                        <mxPoint x="330" y="230" as="sourcePoint"/>
                        <mxPoint x="490" y="230" as="targetPoint"/>
                    </mxGeometry>
                </mxCell>
                <mxCell id="46" value="Look for" style="text;html=1;strokeColor=none;fillColor=none;align=center;verticalAlign=middle;whiteSpace=wrap;rounded=0;fontSize=14;fontStyle=0" parent="1" vertex="1">
                    <mxGeometry x="960" y="30" width="120" height="30" as="geometry"/>
                </mxCell>
            </root>
        </mxGraphModel>
    </diagram>
</mxfile>